<svg width="20" height="20" viewBox="0 0 20 20" fill="none" xmlns="http://www.w3.org/2000/svg">
<path fill-rule="evenodd" clip-rule="evenodd" d="M8.94508 0.445557C7.58967 0.445672 6.25394 0.769921 5.04933 1.39125C3.84473 2.01258 2.80617 2.91297 2.02031 4.01731C1.23446 5.12165 0.724088 6.3979 0.531786 7.7396C0.339484 9.0813 0.470827 10.4495 0.914856 11.7301C1.35888 13.0108 2.10272 14.1666 3.08431 15.1013C4.06591 16.036 5.25678 16.7223 6.55759 17.1032C7.8584 17.484 9.23142 17.5482 10.5621 17.2905C11.8928 17.0327 13.1425 16.4605 14.2071 15.6216L17.8591 19.2736C18.0477 19.4557 18.3003 19.5565 18.5625 19.5542C18.8247 19.552 19.0755 19.4468 19.2609 19.2614C19.4463 19.076 19.5515 18.8252 19.5538 18.563C19.556 18.3008 19.4552 18.0482 19.2731 17.8596L15.6211 14.2076C16.6091 12.9542 17.2242 11.448 17.3962 9.86128C17.5681 8.27461 17.2899 6.67158 16.5933 5.23565C15.8967 3.79972 14.81 2.58891 13.4574 1.74179C12.1048 0.894663 10.541 0.445449 8.94508 0.445557ZM2.44508 8.94556C2.44508 7.22165 3.1299 5.56835 4.34888 4.34936C5.56787 3.13038 7.22117 2.44556 8.94508 2.44556C10.669 2.44556 12.3223 3.13038 13.5413 4.34936C14.7603 5.56835 15.4451 7.22165 15.4451 8.94556C15.4451 10.6695 14.7603 12.3228 13.5413 13.5418C12.3223 14.7607 10.669 15.4456 8.94508 15.4456C7.22117 15.4456 5.56787 14.7607 4.34888 13.5418C3.1299 12.3228 2.44508 10.6695 2.44508 8.94556Z" fill="black"/>
</svg>
