<svg width="32" height="32" viewBox="0 0 32 32" fill="none" xmlns="http://www.w3.org/2000/svg">
<g filter="url(#filter0_b_39_8717)">
<path d="M16.3706 4.21986L19.996 10.5425C20.1772 10.8584 20.4728 11.0837 20.815 11.1669L27.6648 12.8319C27.9823 12.909 28.1075 13.3133 27.8938 13.5717L23.2847 19.1442C23.0543 19.4226 22.9415 19.7872 22.9719 20.1546L23.5798 27.5062C23.608 27.847 23.2804 28.0969 22.9802 27.9634L16.5061 25.0849C16.1826 24.941 15.8174 24.941 15.4939 25.0849L9.01982 27.9634C8.71964 28.0969 8.39203 27.847 8.42022 27.5062L9.02814 20.1546C9.05852 19.7872 8.94564 19.4226 8.71533 19.1442L4.10622 13.5717C3.89252 13.3133 4.01765 12.909 4.33525 12.8319L11.185 11.1669C11.5273 11.0837 11.8228 10.8584 12.004 10.5425L15.6294 4.21986C15.7975 3.92671 16.2025 3.92671 16.3706 4.21986Z" stroke="#FECC1D" stroke-width="2"/>
</g>
<defs>
<filter id="filter0_b_39_8717" x="-100" y="-100" width="232" height="232" filterUnits="userSpaceOnUse" color-interpolation-filters="sRGB">
<feFlood flood-opacity="0" result="BackgroundImageFix"/>
<feGaussianBlur in="BackgroundImageFix" stdDeviation="50"/>
<feComposite in2="SourceAlpha" operator="in" result="effect1_backgroundBlur_39_8717"/>
<feBlend mode="normal" in="SourceGraphic" in2="effect1_backgroundBlur_39_8717" result="shape"/>
</filter>
</defs>
</svg>
